#Comment line ignore any data following # character 
#Hierarchical Translation and Rotation (.htr) file 
[Header]	
#Header keywords are followed by a single value 
FileType HTR		#Single word string
DataType HTRS		#Translation followed by rotation and scale data
FileVersion 1		#integer
NumSegments 25		#integer
NumFrames 4		#integer
DataFrameRate 30		#integer, data frame rate in this file
EulerRotationOrder ZYX
CalibrationUnits mm
RotationUnits Degrees
GlobalAxisofGravity Y
BoneLengthAxis Y
ScaleFactor 1.00
[SegmentNames&Hierarchy]
#CHILD	PARENT
BN_Tick_Root GLOBAL
BN_Torso BN_Tick_Root
BN_L_Leg_Front01 BN_Torso
BN_L_Leg_Rear01 BN_Torso
BN_MetalTop BN_Torso
BN_Neck BN_Torso
BN_R_Leg_Front01 BN_Torso
BN_R_Leg_Rear01 BN_Torso
BN_Sack BN_Torso
BN_L_Leg_Front02 BN_L_Leg_Front01
BN_L_Leg_Front03 BN_L_Leg_Front02
BN_L_Leg_Rear02 BN_L_Leg_Rear01
BN_L_Leg_Rear03 BN_L_Leg_Rear02
BN_Head BN_Neck
BN_Needle BN_Head
BN_R_Leg_Front02 BN_R_Leg_Front01
BN_R_Leg_Front03 BN_R_Leg_Front02
BN_R_Leg_Rear02 BN_R_Leg_Rear01
BN_R_Leg_Rear03 BN_R_Leg_Rear02
BN_SackDef01 BN_Sack
BN_SackDef02 BN_Sack
BN_SackDef03 BN_Sack
BN_SackDef04 BN_Sack
BN_SackDef05 BN_Sack
BN_SackDef06 BN_Sack
[BasePosition]
#SegmentName Tx, Ty, Tz, Rx, Ry, Rz, BoneLength
BN_Tick_Root 0.000000 0.000000 0.000000 -90.000000 0.000000 0.000000 10.000000 
BN_Torso 0.000000 0.000000 0.000000 0.000000 0.000000 0.000000 10.000000 
BN_L_Leg_Front01 0.000000 0.000000 0.000000 0.000000 0.000000 0.000000 10.000000 
BN_L_Leg_Rear01 0.000000 0.000000 0.000000 0.000000 0.000000 0.000000 10.000000 
BN_MetalTop 0.000000 0.000000 0.000000 0.000000 0.000000 0.000000 10.000000 
BN_Neck 0.000000 0.000000 0.000000 0.000000 0.000000 0.000000 10.000000 
BN_R_Leg_Front01 0.000000 0.000000 0.000000 0.000000 0.000000 0.000000 10.000000 
BN_R_Leg_Rear01 0.000000 0.000000 0.000000 0.000000 0.000000 0.000000 10.000000 
BN_Sack 0.000000 0.000000 0.000000 0.000000 0.000000 0.000000 10.000000 
BN_L_Leg_Front02 0.000000 0.000000 0.000000 0.000000 0.000000 0.000000 10.000000 
BN_L_Leg_Front03 0.000000 0.000000 0.000000 0.000000 0.000000 0.000000 10.000000 
BN_L_Leg_Rear02 0.000000 0.000000 0.000000 0.000000 0.000000 0.000000 10.000000 
BN_L_Leg_Rear03 0.000000 0.000000 0.000000 0.000000 0.000000 0.000000 10.000000 
BN_Head 0.000000 0.000000 0.000000 0.000000 0.000000 0.000000 10.000000 
BN_Needle 0.000000 0.000000 0.000000 0.000000 0.000000 0.000000 10.000000 
BN_R_Leg_Front02 0.000000 0.000000 0.000000 0.000000 0.000000 0.000000 10.000000 
BN_R_Leg_Front03 0.000000 0.000000 0.000000 0.000000 0.000000 0.000000 10.000000 
BN_R_Leg_Rear02 0.000000 0.000000 0.000000 0.000000 0.000000 0.000000 10.000000 
BN_R_Leg_Rear03 0.000000 0.000000 0.000000 0.000000 0.000000 0.000000 10.000000 
BN_SackDef01 0.000000 0.000000 0.000000 0.000000 0.000000 0.000000 10.000000 
BN_SackDef02 0.000000 0.000000 0.000000 0.000000 0.000000 0.000000 10.000000 
BN_SackDef03 0.000000 0.000000 0.000000 0.000000 0.000000 0.000000 10.000000 
BN_SackDef04 0.000000 0.000000 0.000000 0.000000 0.000000 0.000000 10.000000 
BN_SackDef05 0.000000 0.000000 0.000000 0.000000 0.000000 0.000000 10.000000 
BN_SackDef06 0.000000 0.000000 0.000000 0.000000 0.000000 0.000000 10.000000 
#Beginning of Data. Separated by tabs
#Fr	Tx	Ty	Tz	Rx	Ry	Rz	SF
[BN_Tick_Root]
142 492.088684 2141.677734 583.866943 0.000000 0.000000 -2.647810 2273.727295
143 485.648010 2128.098633 517.025330 0.000000 0.000000 -2.738080 2243.206299
144 481.339355 2116.463623 464.427551 0.000000 0.000000 -2.828348 2219.639404
145 478.615906 2107.621826 434.212799 0.000000 0.000000 -2.918617 2204.468994
[BN_Torso]
142 30.639513 -189.918228 118.784569 87.448898 1.937449 13.819831 226.091766
143 36.114536 -169.972687 138.030991 83.365196 5.205901 20.058935 221.917847
144 38.739925 -156.550186 164.766800 75.779053 8.479921 27.315109 230.557678
145 37.588924 -145.940521 202.054535 71.691612 8.162805 32.589214 252.066650
[BN_L_Leg_Front01]
142 -68.477791 10.734189 -26.804373 -78.033409 70.620941 163.899948 74.316254
143 -68.477791 10.734189 -26.804373 -93.907326 79.520973 155.164017 74.316254
144 -68.477791 10.734189 -26.804373 157.254349 78.614853 62.671234 74.316254
145 -68.477791 10.734189 -26.804373 105.289650 68.397949 41.692055 74.316254
[BN_L_Leg_Rear01]
142 -72.133743 -73.994843 -18.268616 171.410843 77.976906 -33.742458 104.939293
143 -72.133743 -73.994843 -18.268616 167.230499 67.111458 -19.467333 104.939293
144 -72.133743 -73.994843 -18.268616 168.839798 60.660515 -10.836441 104.939293
145 -72.133743 -73.994843 -18.268616 164.144775 57.552814 -18.704550 104.939293
[BN_MetalTop]
142 0.000008 13.737477 26.403606 89.999481 -12.930620 -90.001785 29.763546
143 0.000008 13.737477 26.403606 97.840630 -25.029085 -92.576698 29.763546
144 0.000008 13.737477 26.403606 93.778366 -18.985867 -91.233826 29.763546
145 0.000008 13.737477 26.403606 90.002785 -12.930262 -89.998840 29.763546
[BN_Neck]
142 0.000014 95.233284 10.002091 -94.259209 -39.081493 77.026810 95.757088
143 0.000014 95.233284 10.002091 -93.767067 -40.590343 76.843781 95.757088
144 0.000014 95.233284 10.002091 -93.194328 -42.167015 76.852226 95.757088
145 0.000014 95.233284 10.002091 -92.563843 -43.807480 77.034042 95.757088
[BN_R_Leg_Front01]
142 68.477768 10.734107 -26.804314 17.701481 72.363670 -178.427185 74.316193
143 68.477768 10.734107 -26.804314 -8.225395 73.275742 -167.320984 74.316193
144 68.477768 10.734107 -26.804314 -2.284528 76.518677 -132.858917 74.316193
145 68.477768 10.734107 -26.804314 33.899540 71.144287 -95.919464 74.316193
[BN_R_Leg_Rear01]
142 72.133751 -73.994873 -18.268644 -66.113510 34.466568 -39.200497 104.939331
143 72.133751 -73.994873 -18.268644 -64.949013 33.164963 -32.397308 104.939331
144 72.133751 -73.994873 -18.268644 -57.553093 33.886147 -29.728153 104.939331
145 72.133751 -73.994873 -18.268644 -53.915737 34.104538 -37.085876 104.939331
[BN_Sack]
142 -0.000000 -78.024918 33.657791 89.997398 10.353522 -90.001083 84.974907
143 -0.000000 -78.024918 33.657791 89.996941 14.233547 -90.004501 84.974907
144 -0.000000 -78.024918 33.657791 90.003929 17.390276 -89.997482 84.974907
145 -0.000000 -78.024918 33.657791 90.001251 19.861702 -89.997330 84.974907
[BN_L_Leg_Front02]
142 142.805023 -0.000015 -0.000104 -2.106746 0.797050 113.756210 142.805023
143 142.805023 -0.000015 -0.000104 -3.574628 0.847494 97.372536 142.805023
144 142.805023 -0.000015 -0.000104 -6.397704 0.805944 86.426010 142.805023
145 142.805023 -0.000015 -0.000104 -7.196080 0.792090 84.918037 142.805023
[BN_L_Leg_Front03]
142 124.143021 -0.000045 0.000007 0.352815 0.002270 -179.670288 124.143021
143 124.143021 -0.000045 0.000007 0.352815 0.002270 -179.670288 124.143021
144 124.143021 -0.000045 0.000007 0.352815 0.002270 -179.670288 124.143021
145 124.143021 -0.000045 0.000007 0.352815 0.002270 -179.670288 124.143021
[BN_L_Leg_Rear02]
142 139.939041 0.000075 -0.000022 -179.666397 -0.002315 -47.021896 139.939041
143 139.939041 0.000075 -0.000022 -179.449722 -0.011987 -63.514175 139.939041
144 139.939041 0.000075 -0.000022 -0.664298 -0.007429 -107.823128 139.939041
145 139.939041 0.000075 -0.000022 -0.284248 -0.167105 -159.816086 139.939041
[BN_L_Leg_Rear03]
142 142.839615 0.000179 -0.000060 0.001658 -0.001661 -179.892853 142.839615
143 142.839615 0.000179 -0.000060 0.001658 -0.001661 -179.892853 142.839615
144 142.839615 0.000179 -0.000060 0.001658 -0.001661 -179.891800 142.839615
145 142.839615 0.000179 -0.000060 0.001529 -0.001781 -171.292801 142.839615
[BN_Head]
142 57.062447 -0.000030 0.000000 -11.090806 5.152214 22.830307 57.062447
143 57.062447 -0.000030 0.000000 -10.995426 5.106068 21.371037 57.062447
144 57.062447 -0.000030 0.000000 -10.723513 4.979418 19.897102 57.062447
145 57.062447 -0.000030 0.000000 -10.226669 4.741305 18.401583 57.062447
[BN_Needle]
142 33.915268 69.677635 0.000018 0.000003 0.000030 87.896805 77.493340
143 33.915268 69.677635 0.000019 0.000003 0.000030 87.896805 77.493340
144 33.915264 69.677635 0.000019 0.000003 0.000030 87.896805 77.493340
145 33.915264 69.677635 0.000020 0.000003 0.000030 87.896805 77.493340
[BN_R_Leg_Front02]
142 142.804947 -0.000060 0.000060 5.191243 0.830806 -89.662277 142.804947
143 142.804947 -0.000060 0.000060 10.377405 0.734444 -81.286758 142.804947
144 142.804947 -0.000060 0.000060 5.791929 0.816894 -87.895401 142.804947
145 142.804947 -0.000060 0.000060 2.256682 0.810601 -111.329918 142.804947
[BN_R_Leg_Front03]
142 124.143005 -0.000060 -0.000156 -0.354441 0.002271 179.671906 124.143005
143 124.143005 -0.000060 -0.000156 -0.354441 0.002271 179.671906 124.143005
144 124.143005 -0.000060 -0.000156 -0.354441 0.002271 179.671906 124.143005
145 124.143005 -0.000060 -0.000156 -0.354440 0.002264 179.672684 124.143005
[BN_R_Leg_Rear02]
142 139.939011 -0.000149 0.000015 0.064761 -0.253478 -138.679169 139.939011
143 139.939011 -0.000149 0.000015 0.007657 -0.263195 -122.088364 139.939011
144 139.939011 -0.000149 0.000015 -0.049843 -0.256201 -105.497810 139.939011
145 139.939011 -0.000149 0.000015 -0.093544 -0.216056 -90.466248 139.939011
[BN_R_Leg_Rear03]
142 142.839417 0.000075 0.000119 0.002037 -0.001167 149.617096 142.839417
143 142.839417 0.000075 0.000119 0.002136 -0.000974 139.013947 142.839417
144 142.839417 0.000075 0.000119 0.002240 -0.000703 124.832787 142.839417
145 142.839417 0.000075 0.000119 0.002317 -0.000375 108.362968 142.839417
[BN_SackDef01]
142 249.782272 -3.760844 42.949425 -128.408218 -44.374973 -11.740845 253.475800
143 249.782272 -3.760844 42.949425 -128.408218 -44.374973 -11.740845 253.475800
144 249.782272 -3.760844 42.949425 -128.408218 -44.374973 -11.740845 253.475800
145 249.782272 -3.760844 42.949425 -128.408218 -44.374973 -11.740845 253.475800
[BN_SackDef02]
142 138.789795 -62.131748 45.674385 32.077126 -27.375721 -88.781525 158.773758
143 138.789795 -62.131748 45.674385 32.077126 -27.375721 -88.781525 158.773758
144 138.789795 -62.131748 45.674385 32.077126 -27.375721 -88.781525 158.773758
145 138.789795 -62.131748 45.674385 32.077126 -27.375721 -88.781525 158.773758
[BN_SackDef03]
142 249.782272 -3.760785 -42.949661 18.144459 44.375008 -11.740894 253.475845
143 249.782272 -3.760785 -42.949661 18.144459 44.375008 -11.740894 253.475845
144 249.782272 -3.760785 -42.949661 18.144459 44.375008 -11.740894 253.475845
145 249.782272 -3.760785 -42.949661 18.144459 44.375008 -11.740894 253.475845
[BN_SackDef04]
142 138.789780 -62.131645 -45.674473 146.059982 27.375723 -88.781555 158.773743
143 138.789780 -62.131645 -45.674473 146.059982 27.375723 -88.781555 158.773743
144 138.789780 -62.131645 -45.674473 146.059982 27.375723 -88.781555 158.773743
145 138.789780 -62.131645 -45.674473 146.059982 27.375723 -88.781555 158.773743
[BN_SackDef05]
142 118.790161 46.167137 -63.831196 0.155741 51.314110 90.605110 142.537460
143 118.790161 46.167137 -63.831196 0.155741 51.314110 90.605110 142.537460
144 118.790161 46.167137 -63.831196 0.155741 51.314110 90.605110 142.537460
145 118.790161 46.167137 -63.831196 0.155741 51.314110 90.605110 142.537460
[BN_SackDef06]
142 118.790207 46.167194 63.831219 152.058487 -51.314072 90.605019 142.537537
143 118.790207 46.167194 63.831219 152.058487 -51.314072 90.605019 142.537537
144 118.790207 46.167194 63.831219 152.058487 -51.314072 90.605019 142.537537
145 118.790207 46.167194 63.831219 152.058487 -51.314072 90.605019 142.537537
